<?xml version="1.0" encoding="UTF-8"?>
<svg version="1.1" xmlns="http://www.w3.org/2000/svg" width="180" height="180">
<path d="M0 0 C59.4 0 118.8 0 180 0 C180 59.4 180 118.8 180 180 C120.6 180 61.2 180 0 180 C0 120.6 0 61.2 0 0 Z " fill="#003562" transform="translate(0,0)"/>
<path d="M0 0 C3.53713277 1.17904426 4.00119566 2.05614145 6.03125 5.078125 C6.59457031 5.90957031 7.15789062 6.74101563 7.73828125 7.59765625 C8.31964844 8.47292969 8.90101562 9.34820312 9.5 10.25 C10.37205078 11.53970703 10.37205078 11.53970703 11.26171875 12.85546875 C12.85838902 15.22672506 14.44644917 17.60026413 16 20 C16.54245361 20.80171631 17.08490723 21.60343262 17.64379883 22.42944336 C19.18382608 25.34842571 19.50243258 27.45806866 19.73046875 30.73828125 C19.81103516 31.80498047 19.89160156 32.87167969 19.97460938 33.97070312 C20.04486328 35.07349609 20.11511719 36.17628906 20.1875 37.3125 C20.26935547 38.43462891 20.35121094 39.55675781 20.43554688 40.71289062 C20.63533403 43.47465422 20.82306455 46.23669391 21 49 C23.97 48.505 23.97 48.505 27 48 C27.1875 50.3125 27.1875 50.3125 27 53 C26.505 53.433125 26.01 53.86625 25.5 54.3125 C23.31994548 56.76506133 24.02381159 58.90603116 24.1484375 62.02734375 C23.91602217 65.11602119 21.97095642 66.69116533 20 69 C18.80018019 71.96189828 17.91587038 74.93183422 17 78 C23.93 78.99 23.93 78.99 31 80 C31 80.33 31 80.66 31 81 C29.43883181 81.33951619 27.87598662 81.67132544 26.3125 82 C25.44238281 82.185625 24.57226562 82.37125 23.67578125 82.5625 C21.05247725 82.99141978 18.6522833 83.07037568 16 83 C15.01 83 14.02 83 13 83 C12.01 83 11.02 83 10 83 C10.64449607 86.01217112 11.65022182 88.51655836 13.0625 91.25 C13.42472656 91.95640625 13.78695312 92.6628125 14.16015625 93.390625 C14.43730469 93.92171875 14.71445313 94.4528125 15 95 C14.34 95 13.68 95 13 95 C12.67 95.66 12.34 96.32 12 97 C12 95.68 12 94.36 12 93 C10.515 92.505 10.515 92.505 9 92 C9 91.01 9 90.02 9 89 C8.34 89 7.68 89 7 89 C6.34 88.01 5.68 87.02 5 86 C4.67 87.98 4.34 89.96 4 92 C3.34 92 2.68 92 2 92 C1.67 92.99 1.34 93.98 1 95 C-1.32903518 91.50644723 -1.21569874 90.11167639 -1.125 86 C-1.10695313 84.948125 -1.08890625 83.89625 -1.0703125 82.8125 C-1.04710938 81.884375 -1.02390625 80.95625 -1 80 C-1 76.14143435 -2.58931106 75.00785617 -5.07421875 72.23828125 C-7.42784916 69.50272298 -9.59442188 66.641693 -11.75 63.75 C-12.50796875 62.73421875 -13.2659375 61.7184375 -14.046875 60.671875 C-18.79787881 54.17250178 -18.73266129 48.76338798 -18.875 40.875 C-18.8873468 40.19693298 -18.8996936 39.51886597 -18.91241455 38.82025146 C-19.00608583 26.61947641 -16.09597684 18.69383458 -7.62011719 9.77050781 C-4.82377648 6.71459117 -2.43079151 3.34901782 0 0 Z " fill="#053056" transform="translate(89,56)"/>
<path d="M0 0 C4.09307568 3.73715606 4.19015703 7.31512283 4.5625 12.6875 C4.68818359 14.45673828 4.68818359 14.45673828 4.81640625 16.26171875 C4.87699219 17.16535156 4.93757813 18.06898437 5 19 C6.98 18.67 8.96 18.34 11 18 C11.1875 20.3125 11.1875 20.3125 11 23 C10.505 23.433125 10.01 23.86625 9.5 24.3125 C7.31994548 26.76506133 8.02381159 28.90603116 8.1484375 32.02734375 C7.91602217 35.11602119 5.97095642 36.69116533 4 39 C2.80018019 41.96189828 1.91587038 44.93183422 1 48 C5.62 48.66 10.24 49.32 15 50 C15 50.33 15 50.66 15 51 C13.43883181 51.33951619 11.87598662 51.67132544 10.3125 52 C9.44238281 52.185625 8.57226562 52.37125 7.67578125 52.5625 C5.05247725 52.99141978 2.6522833 53.07037568 0 53 C-0.99 53 -1.98 53 -3 53 C-3.99 53 -4.98 53 -6 53 C-5.35550393 56.01217112 -4.34977818 58.51655836 -2.9375 61.25 C-2.39416016 62.30960938 -2.39416016 62.30960938 -1.83984375 63.390625 C-1.42412109 64.18726563 -1.42412109 64.18726563 -1 65 C-1.66 65 -2.32 65 -3 65 C-3.495 65.99 -3.495 65.99 -4 67 C-4 65.68 -4 64.36 -4 63 C-4.99 62.67 -5.98 62.34 -7 62 C-7 61.01 -7 60.02 -7 59 C-7.66 59 -8.32 59 -9 59 C-9.66 58.01 -10.32 57.02 -11 56 C-11.33 57.98 -11.66 59.96 -12 62 C-12.66 62 -13.32 62 -14 62 C-14.33 62.99 -14.66 63.98 -15 65 C-17.35119399 61.47320901 -17.21443452 59.97120515 -17.125 55.8125 C-17.10695313 54.72582031 -17.08890625 53.63914063 -17.0703125 52.51953125 C-17.04710938 51.68808594 -17.02390625 50.85664063 -17 50 C-15.02 49.505 -15.02 49.505 -13 49 C-13 46.36 -13 43.72 -13 41 C-13.66 40.67 -14.32 40.34 -15 40 C-14.56085049 33.85190684 -11.77590815 30.74426614 -7.50073242 26.51782227 C-1.9355576 20.88927307 -0.2447918 16.46240302 -0.1875 8.5625 C-0.16236328 7.73556641 -0.13722656 6.90863281 -0.11132812 6.05664062 C-0.05299349 4.0382622 -0.02350257 2.01908445 0 0 Z " fill="#1F3D70" transform="translate(105,86)"/>
<path d="M0 0 C0.66 0 1.32 0 2 0 C2.87686585 6.73184413 3.12387197 13.2785368 3.0625 20.0625 C3.05798828 21.02349609 3.05347656 21.98449219 3.04882812 22.97460938 C3.03717706 25.31647422 3.02082025 27.65820181 3 30 C2.34 30 1.68 30 1 30 C0.77957031 30.680625 0.55914062 31.36125 0.33203125 32.0625 C-1.38165468 35.8416549 -3.72271823 38.78082903 -6.3125 42 C-6.78623047 42.60328125 -7.25996094 43.2065625 -7.74804688 43.828125 C-10.63433687 47.46066507 -13.6560572 50.78396758 -17 54 C-19.32515411 23.66866277 -19.32515411 23.66866277 -9.70800781 12.13891602 C-8.66814878 10.97090535 -7.60930866 9.81944076 -6.52978516 8.68798828 C-4.91449708 6.90565478 -3.58341079 5.04552552 -2.23046875 3.05859375 C-1.49441406 2.04925781 -0.75835937 1.03992187 0 0 Z " fill="#93446E" transform="translate(88,57)"/>
<path d="M0 0 C3.53713277 1.17904426 4.00119566 2.05614145 6.03125 5.078125 C6.59457031 5.90957031 7.15789062 6.74101563 7.73828125 7.59765625 C8.31964844 8.47292969 8.90101562 9.34820312 9.5 10.25 C10.37205078 11.53970703 10.37205078 11.53970703 11.26171875 12.85546875 C19.40905326 24.9552859 19.40905326 24.9552859 19 33 C18.34 32.34 17.68 31.68 17 31 C16.67 36.61 16.34 42.22 16 48 C15.67 48 15.34 48 15 48 C14.67 42.06 14.34 36.12 14 30 C13.67 33.63 13.34 37.26 13 41 C12.01 41 11.02 41 10 41 C10 39.02 10 37.04 10 35 C9.236875 35.0825 8.47375 35.165 7.6875 35.25 C5 35 5 35 3.36181641 33.27392578 C1.84049493 30.73366256 1.59656248 29.30110423 1.5234375 26.3671875 C1.4925 25.47773437 1.4615625 24.58828125 1.4296875 23.671875 C1.41164063 22.74890625 1.39359375 21.8259375 1.375 20.875 C1.32298903 19.05981717 1.26830886 17.24470882 1.2109375 15.4296875 C1.18354492 14.53862305 1.15615234 13.64755859 1.12792969 12.72949219 C0.92819318 8.46793838 0.48257035 4.23767839 0 0 Z " fill="#1F305F" transform="translate(89,56)"/>
<path d="M0 0 C3.25 0.0625 3.25 0.0625 7 1 C8.38056739 2.67825224 9.23433437 4.34213551 10.16796875 6.30078125 C10.93898596 8.10778824 10.93898596 8.10778824 12.5625 9.5625 C14.74532075 11.74532075 15.79285889 14.1833374 17 17 C17 18.32 17 19.64 17 21 C17.66 21 18.32 21 19 21 C19 21.99 19 22.98 19 24 C12.07 24 5.14 24 -2 24 C-2.04125 21.15375 -2.0825 18.3075 -2.125 15.375 C-2.14320801 14.48989746 -2.16141602 13.60479492 -2.18017578 12.69287109 C-2.21252925 8.05588893 -1.79194879 4.35993838 0 0 Z " fill="#637E96" transform="translate(71,156)"/>
<path d="M0 0 C0.33 0 0.66 0 1 0 C2.17364862 22.0013976 2.17364862 22.0013976 -3.34375 28.4296875 C-4.16359375 29.20699219 -4.16359375 29.20699219 -5 30 C-9.07019567 33.97553995 -11.03437476 36.72384805 -13 42 C-12.01 42.33 -11.02 42.66 -10 43 C-10 44.98 -10 46.96 -10 49 C-11.6875 49.8125 -11.6875 49.8125 -14 50 C-16.8125 47.875 -16.8125 47.875 -19 45 C-18.91985673 41.55383944 -18.4443896 40.4443896 -16 38 C-15.52310967 36.39901103 -15.05453369 34.79506094 -14.62890625 33.1796875 C-13.89341733 30.63060168 -12.98862322 28.17359503 -12.0625 25.6875 C-10.70162295 21.97834263 -9.38575645 18.2651636 -8.1875 14.5 C-7.93355469 13.7059375 -7.67960937 12.911875 -7.41796875 12.09375 C-6.78429555 9.82073439 -6.78429555 9.82073439 -8 7 C-6.68 7 -5.36 7 -4 7 C-3.67 8.98 -3.34 10.96 -3 13 C-2.67 13 -2.34 13 -2 13 C-1.90912109 11.84371094 -1.90912109 11.84371094 -1.81640625 10.6640625 C-1.73261719 9.66117188 -1.64882812 8.65828125 -1.5625 7.625 C-1.48128906 6.62726563 -1.40007812 5.62953125 -1.31640625 4.6015625 C-1 2 -1 2 0 0 Z " fill="#302F5B" transform="translate(103,84)"/>
<path d="M0 0 C4.18082714 3.81727695 4.29689437 7.72350842 4.59692383 13.12304688 C4.85999708 21.29746321 5.04768698 27.71623892 -0.6875 34 C-2.41086439 35.715705 -4.18128211 37.38572193 -6 39 C-7.67242367 40.66088971 -9.34082386 42.32587632 -11 44 C-13.0625 42.375 -13.0625 42.375 -15 40 C-15.11779803 34.58129084 -12.58068377 31.83644689 -9 28 C-8.5052417 27.51088135 -8.0104834 27.0217627 -7.50073242 26.51782227 C-1.9355576 20.88927307 -0.2447918 16.46240302 -0.1875 8.5625 C-0.16236328 7.73556641 -0.13722656 6.90863281 -0.11132812 6.05664062 C-0.05299349 4.0382622 -0.02350257 2.01908445 0 0 Z " fill="#FCA08E" transform="translate(105,86)"/>
<path d="M0 0 C0.99 0 1.98 0 3 0 C3.24915939 1.76813112 3.47366632 3.53974982 3.6875 5.3125 C3.81511719 6.29863281 3.94273438 7.28476563 4.07421875 8.30078125 C4 11 4 11 2.5 12.6875 C2.005 13.120625 1.51 13.55375 1 14 C1.23043864 16.65466049 1.23043864 16.65466049 2 19 C1.34 19 0.68 19 0 19 C-0.2475 19.5775 -0.495 20.155 -0.75 20.75 C-2.19393699 23.34908658 -3.73521987 25.07836838 -6 27 C-6.99 27 -7.98 27 -9 27 C-9 26.34 -9 25.68 -9 25 C-9.66 25.33 -10.32 25.66 -11 26 C-11 32.93 -11 39.86 -11 47 C-11.99 47.495 -11.99 47.495 -13 48 C-15.32004695 17.73528502 -15.32004695 17.73528502 -5.35644531 5.61157227 C-3.64038501 3.66856735 -1.83299712 1.83299712 0 0 Z " fill="#6B5377" transform="translate(84,63)"/>
<path d="M0 0 C1 3 1 3 -1 8 C3.62 8.66 8.24 9.32 13 10 C13 10.33 13 10.66 13 11 C11.43883181 11.33951619 9.87598662 11.67132544 8.3125 12 C7.00732422 12.2784375 7.00732422 12.2784375 5.67578125 12.5625 C3.05247725 12.99141978 0.6522833 13.07037568 -2 13 C-2.99 13 -3.98 13 -5 13 C-5.99 13 -6.98 13 -8 13 C-7.35550393 16.01217112 -6.34977818 18.51655836 -4.9375 21.25 C-4.39416016 22.30960938 -4.39416016 22.30960938 -3.83984375 23.390625 C-3.56269531 23.92171875 -3.28554687 24.4528125 -3 25 C-3.66 25 -4.32 25 -5 25 C-5.33 25.66 -5.66 26.32 -6 27 C-6 25.68 -6 24.36 -6 23 C-6.99 22.67 -7.98 22.34 -9 22 C-9 21.01 -9 20.02 -9 19 C-9.66 19 -10.32 19 -11 19 C-11.66 18.01 -12.32 17.02 -13 16 C-13.33 17.98 -13.66 19.96 -14 22 C-14.66 22 -15.32 22 -16 22 C-16.33 22.99 -16.66 23.98 -17 25 C-19.35119399 21.47320901 -19.21443452 19.97120515 -19.125 15.8125 C-19.10695313 14.72582031 -19.08890625 13.63914063 -19.0703125 12.51953125 C-19.04710938 11.68808594 -19.02390625 10.85664063 -19 10 C-17.68 9.67 -16.36 9.34 -15 9 C-15 8.34 -15 7.68 -15 7 C-14.34 7 -13.68 7 -13 7 C-13 7.99 -13 8.98 -13 10 C-12.01 10 -11.02 10 -10 10 C-10 9.34 -10 8.68 -10 8 C-7.03 8.495 -7.03 8.495 -4 9 C-3.896875 8.2575 -3.79375 7.515 -3.6875 6.75 C-2.95746496 3.82985982 -1.93210602 2.26812446 0 0 Z " fill="#144D7D" transform="translate(107,126)"/>
<path d="M0 0 C3.53713277 1.17904426 4.00119566 2.05614145 6.03125 5.078125 C6.59457031 5.90957031 7.15789062 6.74101563 7.73828125 7.59765625 C8.31964844 8.47292969 8.90101562 9.34820312 9.5 10.25 C10.37205078 11.53970703 10.37205078 11.53970703 11.26171875 12.85546875 C19.40905326 24.9552859 19.40905326 24.9552859 19 33 C18.34 32.34 17.68 31.68 17 31 C16.67 36.61 16.34 42.22 16 48 C15.67 48 15.34 48 15 48 C15.0309375 46.02580078 15.0309375 46.02580078 15.0625 44.01171875 C15.01490865 32.64495774 14.15080503 25.53455292 6 17 C1.26941262 11.5212662 0.16071248 7.26128211 0 0 Z " fill="#497697" transform="translate(89,56)"/>
<path d="M0 0 C3.25 0.0625 3.25 0.0625 7 1 C8.38056739 2.67825224 9.23433437 4.34213551 10.16796875 6.30078125 C10.93898596 8.10778824 10.93898596 8.10778824 12.5625 9.5625 C14.74532075 11.74532075 15.79285889 14.1833374 17 17 C17 18.32 17 19.64 17 21 C17.66 21 18.32 21 19 21 C19 21.99 19 22.98 19 24 C18.34 24 17.68 24 17 24 C15.37890625 21.98828125 15.37890625 21.98828125 13.5625 19.3125 C12.96566406 18.44238281 12.36882812 17.57226562 11.75390625 16.67578125 C7.28700906 9.86102719 7.28700906 9.86102719 6 6 C4.35 6 2.7 6 1 6 C1 11.94 1 17.88 1 24 C0.01 24 -0.98 24 -2 24 C-2.05425013 21.12474331 -2.09379277 18.25052354 -2.125 15.375 C-2.14175781 14.56675781 -2.15851563 13.75851563 -2.17578125 12.92578125 C-2.21420986 8.19906185 -1.82737094 4.44612298 0 0 Z " fill="#17658D" transform="translate(71,156)"/>
<path d="M0 0 C0.33 0 0.66 0 1 0 C1.64165788 5.26159459 0.20577001 7.68592849 -2.90625 11.6796875 C-3.2671875 12.11539063 -3.628125 12.55109375 -4 13 C-4.66 12.67 -5.32 12.34 -6 12 C-7.59138085 16.17737474 -8.21278058 19.53160785 -8 24 C-8.99 24.33 -9.98 24.66 -11 25 C-11 18.4 -11 11.8 -11 5 C-9.68 5 -8.36 5 -7 5 C-4.0216759 3.82672081 -2.19186127 2.29623562 0 0 Z " fill="#BB4E72" transform="translate(83,84)"/>
<path d="M0 0 C3.42326314 1.14108771 3.68599051 1.65030519 5.4375 4.625 C5.86289063 5.33914062 6.28828125 6.05328125 6.7265625 6.7890625 C7.35691406 7.88347656 7.35691406 7.88347656 8 9 C8.39960937 9.68835938 8.79921875 10.37671875 9.2109375 11.0859375 C10.15041504 12.71836301 11.07661133 14.35842013 12 16 C10.68 17.32 9.36 18.64 8 20 C6.3179653 17.94851839 4.65494461 15.88565359 3 13.8125 C2.52304688 13.23435547 2.04609375 12.65621094 1.5546875 12.06054688 C-0.50582457 9.45547091 -1.91932567 7.51645977 -2.4375 4.19921875 C-2 2 -2 2 0 0 Z " fill="#031D3E" transform="translate(75,107)"/>
<path d="M0 0 C2.3941161 2.3941161 2.29598923 3.03786311 2.3125 6.3125 C2.2279584 10.3704969 1.45697351 12.69253566 -1 16 C-1.28488281 16.64839844 -1.56976563 17.29679687 -1.86328125 17.96484375 C-3.86644923 21.55127164 -7.36756789 23.27060115 -11 25 C-14 25.3125 -14 25.3125 -16 25 C-14.55612182 22.11224363 -12.28835582 20.26874134 -10 18 C-8.38644609 16.23550073 -6.80262491 14.44334259 -5.25 12.625 C-4.47140625 11.73039062 -3.6928125 10.83578125 -2.890625 9.9140625 C-0.70250331 6.54146172 -0.29572639 3.9725912 0 0 Z " fill="#9F4479" transform="translate(109,106)"/>
<path d="M0 0 C0.33 0 0.66 0 1 0 C2.17502117 22.02712761 2.17502117 22.02712761 -3.34375 28.41796875 C-3.8903125 28.94003906 -4.436875 29.46210937 -5 30 C-5.886875 30.928125 -6.77375 31.85625 -7.6875 32.8125 C-8.450625 33.534375 -9.21375 34.25625 -10 35 C-11.02813611 36.31175986 -12.04084432 37.6369893 -13 39 C-12.48734214 34.89873713 -11.00273282 31.74116835 -9.109375 28.1328125 C-8.35696892 26.68628532 -7.63899827 25.22142164 -6.953125 23.7421875 C-6.61796875 23.02289063 -6.2828125 22.30359375 -5.9375 21.5625 C-5.63714844 20.90378906 -5.33679688 20.24507812 -5.02734375 19.56640625 C-4 18 -4 18 -1 17 C-1.01740234 15.41058594 -1.01740234 15.41058594 -1.03515625 13.7890625 C-1.04453476 12.40104342 -1.05363489 11.01302245 -1.0625 9.625 C-1.07087891 8.92632812 -1.07925781 8.22765625 -1.08789062 7.5078125 C-1.11328125 2.2265625 -1.11328125 2.2265625 0 0 Z " fill="#6D335F" transform="translate(103,84)"/>
<path d="M0 0 C0.78459533 6.14599676 -1.01354504 9.24423545 -4.4921875 14.27734375 C-4.98976563 14.84582031 -5.48734375 15.41429688 -6 16 C-6.66 16 -7.32 16 -8 16 C-10.01047694 11.89163409 -10.01047694 11.89163409 -10 9 C-7.69753843 4.69480558 -5.17922863 0 0 0 Z " fill="#156B92" transform="translate(87,63)"/>
<path d="M0 0 C1.65 0 3.3 0 5 0 C3.42221984 5.11042002 0.26765567 8.74230974 -3.0625 12.8125 C-3.89491211 13.85180664 -3.89491211 13.85180664 -4.74414062 14.91210938 C-7.75759889 18.63763938 -7.75759889 18.63763938 -9 20 C-9.33 20 -9.66 20 -10 20 C-10.46192125 15.07284004 -8.8275283 11.49267375 -7 7 C-6.34 7.66 -5.68 8.32 -5 9 C-3.35 6.03 -1.7 3.06 0 0 Z " fill="#E6638F" transform="translate(84,87)"/>
<path d="M0 0 C3.80489745 1.49478114 5.66190835 3.69442214 8 7 C8.33 7.99 8.66 8.98 9 10 C8.34 10 7.68 10 7 10 C6.34 9.01 5.68 8.02 5 7 C4.67 8.98 4.34 10.96 4 13 C3.34 13 2.68 13 2 13 C1.67 13.99 1.34 14.98 1 16 C-1.33368594 12.49947109 -1.24221979 11.00385663 -1.1875 6.875 C-1.18105469 5.79992187 -1.17460938 4.72484375 -1.16796875 3.6171875 C-1 1 -1 1 0 0 Z " fill="#3F789A" transform="translate(89,135)"/>
<path d="M0 0 C1.65 0 3.3 0 5 0 C8.47380182 3.47380182 10.60517502 7.75111697 13 12 C13.5775 12.763125 14.155 13.52625 14.75 14.3125 C16 16 16 16 16 18 C13.13275314 17.42655063 12.1385485 17.1385485 10 15 C9.875 12.375 9.875 12.375 10 10 C9.34 10 8.68 10 8 10 C8 9.34 8 8.68 8 8 C7.34 8 6.68 8 6 8 C5.67 6.35 5.34 4.7 5 3 C4.01 3.33 3.02 3.66 2 4 C1.67 8.62 1.34 13.24 1 18 C0.67 18 0.34 18 0 18 C0 12.06 0 6.12 0 0 Z " fill="#487290" transform="translate(72,162)"/>
<path d="M0 0 C2.66672603 2.43483681 3.9008646 4.25969405 4.11352539 7.99291992 C4.10828857 8.73131104 4.10305176 9.46970215 4.09765625 10.23046875 C4.09443359 11.03291016 4.09121094 11.83535156 4.08789062 12.66210938 C4.07532227 13.91217773 4.07532227 13.91217773 4.0625 15.1875 C4.05798828 16.03248047 4.05347656 16.87746094 4.04882812 17.74804688 C4.03705403 19.83206155 4.0191189 21.91603977 4 24 C2.015625 22.640625 2.015625 22.640625 0 20 C-0.51270905 16.57486085 -0.37576221 13.20362379 -0.25 9.75 C-0.23195313 8.81414062 -0.21390625 7.87828125 -0.1953125 6.9140625 C-0.14825673 4.60832985 -0.08253713 2.30469055 0 0 Z " fill="#86B7EA" transform="translate(105,86)"/>
<path d="M0 0 C0.99 0.33 1.98 0.66 3 1 C3 1.66 3 2.32 3 3 C2.01 3 1.02 3 0 3 C-1.01705701 5.52902121 -2.02324632 8.06056757 -3 10.60546875 C-3.33 11.45753906 -3.66 12.30960938 -4 13.1875 C-4.33 14.04730469 -4.66 14.90710938 -5 15.79296875 C-6 18 -6 18 -8 20 C-8.40047444 22.32275177 -8.7397104 24.65739357 -9 27 C-8.01 27.33 -7.02 27.66 -6 28 C-6.33 28.66 -6.66 29.32 -7 30 C-8.32 29.67 -9.64 29.34 -11 29 C-10.91276622 27.22825181 -10.80458345 25.45752623 -10.6875 23.6875 C-10.62949219 22.70136719 -10.57148437 21.71523437 -10.51171875 20.69921875 C-9.93688615 17.66708649 -9.23635115 16.98914523 -7 15 C-6.2986716 12.67684969 -5.63514826 10.34210921 -5 8 C-3.55947451 4.81883953 -2.46743518 2.46743518 0 0 Z " fill="#482E57" transform="translate(99,99)"/>
<path d="M0 0 C0.66 0 1.32 0 2 0 C1.814375 0.886875 1.62875 1.77375 1.4375 2.6875 C1.01957516 5.85178811 1.19222258 7.94839642 2 11 C0.68 11.99 -0.64 12.98 -2 14 C-4.0625 12.25 -4.0625 12.25 -6 10 C-6.13750569 5.87482933 -2.63782584 2.83083748 0 0 Z " fill="#F3C3A8" transform="translate(96,116)"/>
<path d="M0 0 C3.98285796 1.32761932 4.94033483 3.22594824 7.05859375 6.72265625 C8.60238387 10.45721908 7.89988639 13.12356631 7 17 C2.98604104 13.17718195 0.68579768 10.42412478 0.3125 4.75 C0.24675781 3.85796875 0.18101563 2.9659375 0.11328125 2.046875 C0.07589844 1.37140625 0.03851563 0.6959375 0 0 Z " fill="#1E7587" transform="translate(89,56)"/>
<path d="M0 0 C1.0326802 2.78823655 1.04509293 3.8677274 0.0625 6.75 C-0.288125 7.4925 -0.63875 8.235 -1 9 C-3.97 8.505 -3.97 8.505 -7 8 C-7 8.66 -7 9.32 -7 10 C-7.99 10 -8.98 10 -10 10 C-10.33 8.35 -10.66 6.7 -11 5 C-9.9275 4.731875 -8.855 4.46375 -7.75 4.1875 C-4.43491072 3.13772173 -2.56122354 2.25387672 0 0 Z " fill="#45487B" transform="translate(104,126)"/>
<path d="M0 0 C0.33 0 0.66 0 1 0 C1 1.98 1 3.96 1 6 C2.65 6.33 4.3 6.66 6 7 C5.67 8.65 5.34 10.3 5 12 C1.22199132 11.46028447 -0.71576111 10.04565185 -3 7 C-2.83849795 3.60845705 -2.41703243 2.41703243 0 0 Z " fill="#381D44" transform="translate(87,122)"/>
<path d="M0 0 C-0.33 1.32 -0.66 2.64 -1 4 C0.32 3.34 1.64 2.68 3 2 C1.59155282 5.21524305 -0.10344786 7.32183868 -2.625 9.75 C-3.57246094 10.67039062 -3.57246094 10.67039062 -4.5390625 11.609375 C-5.02117187 12.06828125 -5.50328125 12.5271875 -6 13 C-6.33 12.34 -6.66 11.68 -7 11 C-6.34 10.01 -5.68 9.02 -5 8 C-4.34 8 -3.68 8 -3 8 C-3 6.35 -3 4.7 -3 3 C-4.98 3.33 -6.96 3.66 -9 4 C-9 3.01 -9 2.02 -9 1 C-6.04335481 -0.4783226 -3.25770263 -0.06032783 0 0 Z " fill="#133768" transform="translate(119,101)"/>
<path d="M0 0 C3.94714588 3.94714588 3.94714588 3.94714588 4.09765625 6.9453125 C4.06510417 8.96354167 4.03255208 10.98177083 4 13 C3.34 12.34 2.68 11.68 2 11 C1.67 16.61 1.34 22.22 1 28 C0.67 28 0.34 28 0 28 C0 18.76 0 9.52 0 0 Z " fill="#565F87" transform="translate(104,76)"/>
<path d="M0 0 C0.33 0 0.66 0 1 0 C1 3.63 1 7.26 1 11 C-4 12 -4 12 -6 11 C-6 9.35 -6 7.7 -6 6 C-5.34 6 -4.68 6 -4 6 C-3.67 5.01 -3.34 4.02 -3 3 C-2.34 3 -1.68 3 -1 3 C-0.67 2.01 -0.34 1.02 0 0 Z " fill="#9D6E8F" transform="translate(90,76)"/>
<path d="M0 0 C1.32 0 2.64 0 4 0 C5.28317892 3.84953676 5.06643637 6.94738135 5 11 C3.68 11.33 2.36 11.66 1 12 C-0.3271261 8.0186217 -0.06915913 4.14954773 0 0 Z " fill="#092C5D" transform="translate(91,74)"/>
<path d="M0 0 C4.42857143 5.14285714 4.42857143 5.14285714 5 9 C3.68 9.99 2.36 10.98 1 12 C0.67 10.35 0.34 8.7 0 7 C-0.99 7.33 -1.98 7.66 -3 8 C-1.125 1.125 -1.125 1.125 0 0 Z " fill="#F8A499" transform="translate(104,104)"/>
<path d="M0 0 C0.33 0 0.66 0 1 0 C1 6.93 1 13.86 1 21 C0.34 21 -0.32 21 -1 21 C-1.04898438 20.01257813 -1.09796875 19.02515625 -1.1484375 18.0078125 C-1.22320312 16.72648437 -1.29796875 15.44515625 -1.375 14.125 C-1.44460937 12.84882813 -1.51421875 11.57265625 -1.5859375 10.2578125 C-1.67241106 6.91938301 -1.67241106 6.91938301 -4 5 C-3.34 4.01 -2.68 3.02 -2 2 C-1.34 2 -0.68 2 0 2 C0 1.34 0 0.68 0 0 Z " fill="#216F92" transform="translate(108,159)"/>
<path d="M0 0 C0.33 0 0.66 0 1 0 C1.1875 2.3125 1.1875 2.3125 1 5 C0 6 -1 7 -2 8 C-1.77242269 10.16299211 -1.77242269 10.16299211 -1 12 C-3.90600261 13.25664978 -5.79604584 14 -9 14 C-7.45315734 10.67312232 -5.54045021 7.75296022 -3.4375 4.75 C-2.81746094 3.85796875 -2.19742188 2.9659375 -1.55859375 2.046875 C-1.04425781 1.37140625 -0.52992187 0.6959375 0 0 Z " fill="#345C71" transform="translate(87,69)"/>
<path d="M0 0 C0.64165788 5.26159459 -0.79422999 7.68592849 -3.90625 11.6796875 C-4.2671875 12.11539063 -4.628125 12.55109375 -5 13 C-7.178657 9.73201451 -7.72208564 8.79094962 -7 5 C-2.4359673 0 -2.4359673 0 0 0 Z " fill="#D84B7F" transform="translate(84,84)"/>
<path d="M0 0 C5.28 0.66 10.56 1.32 16 2 C16 2.33 16 2.66 16 3 C14.43883181 3.33951619 12.87598662 3.67132544 11.3125 4 C10.00732422 4.2784375 10.00732422 4.2784375 8.67578125 4.5625 C6.05247725 4.99141978 3.6522833 5.07037568 1 5 C0.01 5 -0.98 5 -2 5 C-1.34 4.01 -0.68 3.02 0 2 C0 1.34 0 0.68 0 0 Z " fill="#01517F" transform="translate(104,134)"/>
<path d="M0 0 C2.3941161 2.3941161 2.29598923 3.03786311 2.3125 6.3125 C2.22157272 10.36525861 1.52155644 12.73131573 -1 16 C-1.556875 16.763125 -2.11375 17.52625 -2.6875 18.3125 C-3.120625 18.869375 -3.55375 19.42625 -4 20 C-4.39463456 15.79056466 -3.27264121 12.88695414 -1.734375 9.0703125 C-0.66718803 6.06175349 -0.33002647 3.16825408 0 0 Z " fill="#5F3F76" transform="translate(109,106)"/>
<path d="M0 0 C1.20628008 2.33214148 2.1654738 4.49642139 3 7 C1.625 9 1.625 9 0 11 C-0.33 11.99 -0.66 12.98 -1 14 C-1.66 14 -2.32 14 -3 14 C-3.08114106 12.22992286 -3.13925505 10.45877902 -3.1875 8.6875 C-3.22230469 7.70136719 -3.25710937 6.71523437 -3.29296875 5.69921875 C-3 3 -3 3 -1.48828125 1.14453125 C-0.99714844 0.76683594 -0.50601563 0.38914062 0 0 Z " fill="#70708E" transform="translate(77,73)"/>
<path d="M0 0 C0.66 0 1.32 0 2 0 C-0.31914487 6.57091047 -4.05772257 11.18444763 -9 16 C-10.02813611 17.31175986 -11.04084432 18.6369893 -12 20 C-11.55608704 15.07071655 -9.02211594 12.01878941 -6 8.3125 C-2.69825171 4.35649525 -2.69825171 4.35649525 0 0 Z " fill="#E82B67" transform="translate(102,103)"/>
<path d="M0 0 C0.99 0 1.98 0 3 0 C3.36923077 6.52307692 3.36923077 6.52307692 1.5 8.9375 C1.005 9.288125 0.51 9.63875 0 10 C-0.33 9.01 -0.66 8.02 -1 7 C-1.66 6.67 -2.32 6.34 -3 6 C-1.125 1.125 -1.125 1.125 0 0 Z " fill="#2E8095" transform="translate(84,63)"/>
<path d="M0 0 C3.17300771 0.93699556 4.67733139 1.51762673 6.546875 4.3125 C6.94390625 5.199375 7.3409375 6.08625 7.75 7 C8.15734375 7.886875 8.5646875 8.77375 8.984375 9.6875 C9.31953125 10.450625 9.6546875 11.21375 10 12 C10.33 12.66 10.66 13.32 11 14 C10.34 14 9.68 14 9 14 C8.67 14.66 8.34 15.32 8 16 C8 14.68 8 13.36 8 12 C7.01 11.67 6.02 11.34 5 11 C4.12109375 9.2578125 4.12109375 9.2578125 3.4375 7.125 C2.51191912 4.29073539 1.69894116 2.54841174 0 0 Z " fill="#1A5D8B" transform="translate(93,137)"/>
<path d="M0 0 C0.66 0 1.32 0 2 0 C2 3.63 2 7.26 2 11 C1.01 11.33 0.02 11.66 -1 12 C-1 10.02 -1 8.04 -1 6 C-1.66 6 -2.32 6 -3 6 C-2 4 -1 2 0 0 Z " fill="#B17D8F" transform="translate(88,57)"/>
<path d="M0 0 C1.7074998 1.28062485 3.37373596 2.61767557 5 4 C5 4.66 5 5.32 5 6 C5.66 6 6.32 6 7 6 C8.52448631 8.9826906 9.93940067 11.818202 11 15 C11.66 15 12.32 15 13 15 C13 15.99 13 16.98 13 18 C12.34 18 11.68 18 11 18 C9.37890625 15.98828125 9.37890625 15.98828125 7.5625 13.3125 C6.96566406 12.44238281 6.36882812 11.57226562 5.75390625 10.67578125 C1.28700906 3.86102719 1.28700906 3.86102719 0 0 Z " fill="#316A8C" transform="translate(77,162)"/>
<path d="M0 0 C2.33965571 2.22723982 4.27099166 4.58956647 6.1875 7.1875 C6.71730469 7.90292969 7.24710937 8.61835937 7.79296875 9.35546875 C8.39044922 10.16951172 8.39044922 10.16951172 9 11 C8.67 11.66 8.34 12.32 8 13 C6 11.6875 6 11.6875 4 10 C4 9.01 4 8.02 4 7 C2.68 7 1.36 7 0 7 C0 4.69 0 2.38 0 0 Z " fill="#34465C" transform="translate(91,67)"/>
<path d="M0 0 C0.33 0.66 0.66 1.32 1 2 C2.98 1.67 4.96 1.34 7 1 C7 2.65 7 4.3 7 6 C5.35 6.66 3.7 7.32 2 8 C0.74335022 5.09399739 0 3.20395416 0 0 Z " fill="#35396D" transform="translate(109,103)"/>
<path d="M0 0 C0.75 1.5625 0.75 1.5625 1 4 C-0.13084437 6.50286409 -1.52139516 8.67007722 -3 11 C-3.99 10.01 -4.98 9.02 -6 8 C-5.1875 6.0625 -5.1875 6.0625 -4 4 C-3.01 3.67 -2.02 3.34 -1 3 C-0.67 2.01 -0.34 1.02 0 0 Z " fill="#193359" transform="translate(91,107)"/>
<path d="M0 0 C0.66 0.33 1.32 0.66 2 1 C1.2884375 1.7734375 1.2884375 1.7734375 0.5625 2.5625 C-1.42809407 5.66782675 -1.65060818 8.36632504 -2 12 C-1.01 12.33 -0.02 12.66 1 13 C0.67 13.66 0.34 14.32 0 15 C-1.32 14.67 -2.64 14.34 -4 14 C-3.91276622 12.22825181 -3.80458345 10.45752623 -3.6875 8.6875 C-3.62949219 7.70136719 -3.57148437 6.71523437 -3.51171875 5.69921875 C-2.95377187 2.75615543 -2.31459868 1.81817001 0 0 Z " fill="#6F4C72" transform="translate(92,114)"/>
<path d="M0 0 C1.65 0 3.3 0 5 0 C3.68775452 3.93673644 2.08089673 6.22719294 -1 9 C-1.80967438 6.08517222 -2.21845993 4.53886783 -1.0625 1.6875 C-0.711875 1.130625 -0.36125 0.57375 0 0 Z " fill="#C06F93" transform="translate(84,87)"/>
<path d="M0 0 C5.28 0 10.56 0 16 0 C16 0.33 16 0.66 16 1 C13.69 1 11.38 1 9 1 C9 1.66 9 2.32 9 3 C6.03 2.67 3.06 2.34 0 2 C0 1.34 0 0.68 0 0 Z " fill="#00426C" transform="translate(113,137)"/>
<path d="M0 0 C1.10546875 1.6796875 1.10546875 1.6796875 2 4 C1.42578125 6.5078125 1.42578125 6.5078125 0.3125 9.125 C-0.04199219 9.99382812 -0.39648438 10.86265625 -0.76171875 11.7578125 C-2 14 -2 14 -5 16 C-3.41078475 10.63904723 -1.81027062 5.29156027 0 0 Z " fill="#122D54" transform="translate(95,92)"/>
<path d="M0 0 C2.2477975 2.05233685 3.0022242 3.00667261 4 6 C4.03954234 8.33299825 4.04401732 10.66708189 4 13 C0.87312592 8.30968888 -0.2610462 5.74301634 0 0 Z " fill="#7F92D9" transform="translate(105,86)"/>
<path d="M0 0 C3 1 3 1 4.25 2.75 C5.17574966 5.52724898 4.77341204 7.21571665 4 10 C1.2027092 7.93243723 0.97307727 6.85559629 0.3125 3.3125 C0.209375 2.219375 0.10625 1.12625 0 0 Z " fill="#247BA1" transform="translate(98,69)"/>
<path d="M0 0 C1.98 0 3.96 0 6 0 C5.67 2.64 5.34 5.28 5 8 C4.34 8 3.68 8 3 8 C2.34 6.68 1.68 5.36 1 4 C1.66 3.01 2.32 2.02 3 1 C2.01 0.67 1.02 0.34 0 0 Z " fill="#085F8E" transform="translate(83,135)"/>
<path d="M0 0 C0.33 0 0.66 0 1 0 C1 3.3 1 6.6 1 10 C-1.0625 8.25 -1.0625 8.25 -3 6 C-2.75 3.75 -2.75 3.75 -2 2 C-1.34 2 -0.68 2 0 2 C0 1.34 0 0.68 0 0 Z " fill="#B0C1ED" transform="translate(108,100)"/>
<path d="M0 0 C0.33 0 0.66 0 1 0 C0.88648483 1.81325551 0.75887039 3.62563357 0.625 5.4375 C0.55539063 6.44683594 0.48578125 7.45617187 0.4140625 8.49609375 C0.27742188 9.32238281 0.14078125 10.14867188 0 11 C-0.99 11.495 -0.99 11.495 -2 12 C-2.05395478 10.37536158 -2.09277195 8.75021459 -2.125 7.125 C-2.14820312 6.22007813 -2.17140625 5.31515625 -2.1953125 4.3828125 C-2 2 -2 2 0 0 Z " fill="#845E8D" transform="translate(74,77)"/>
<path d="M0 0 C0.99 0.33 1.98 0.66 3 1 C2.67 1.99 2.34 2.98 2 4 C1.77439324 6.39254576 1.59151405 8.78928123 1.4375 11.1875 C1.35371094 12.45980469 1.26992187 13.73210937 1.18359375 15.04296875 C1.12300781 16.01878906 1.06242187 16.99460938 1 18 C0.67 18 0.34 18 0 18 C0 12.06 0 6.12 0 0 Z " fill="#427A98" transform="translate(72,162)"/>
<path d="M0 0 C0.66 0 1.32 0 2 0 C1.62403791 2.78211944 1.32681541 4.5879284 -0.4375 6.8125 C-2 8 -2 8 -4 8 C-3.40312566 4.65750371 -2.26396123 2.53563658 0 0 Z " fill="#FDC1AF" transform="translate(96,116)"/>
<path d="M0 0 C0.66 0 1.32 0 2 0 C2 0.99 2 1.98 2 3 C2.99 3 3.98 3 5 3 C5 2.34 5 1.68 5 1 C7.97 1.495 7.97 1.495 11 2 C11 2.66 11 3.32 11 4 C7.37 4 3.74 4 0 4 C-0.33 3.34 -0.66 2.68 -1 2 C-0.67 1.34 -0.34 0.68 0 0 Z " fill="#234875" transform="translate(92,133)"/>
<path d="M0 0 C1.4606285 2.64738916 2 3.89448334 2 7 C0 9.1875 0 9.1875 -2 11 C-2.24042276 6.91281305 -1.42258812 3.82320557 0 0 Z " fill="#C47A9A" transform="translate(76,96)"/>
<path d="M0 0 C0.99 1.32 1.98 2.64 3 4 C0.09399739 5.25664978 -1.79604584 6 -5 6 C-3.63016497 2.83884224 -3.0109362 2.0072908 0 0 Z " fill="#3F5273" transform="translate(83,77)"/>
<path d="M0 0 C2.31 0.33 4.62 0.66 7 1 C7.66 2.65 8.32 4.3 9 6 C6.36 4.68 3.72 3.36 1 2 C0.67 2.66 0.34 3.32 0 4 C0 2.68 0 1.36 0 0 Z " fill="#0F648D" transform="translate(71,156)"/>
<path d="M0 0 C0.33 1.32 0.66 2.64 1 4 C-1.35968744 6.09749995 -2.54616994 6.96905704 -5.75 7.1875 C-6.86375 7.0946875 -6.86375 7.0946875 -8 7 C-7.67 6.34 -7.34 5.68 -7 5 C-6.38125 4.87625 -5.7625 4.7525 -5.125 4.625 C-2.32606997 3.80178529 -1.54719585 2.39815356 0 0 Z " fill="#7E497E" transform="translate(101,124)"/>
<path d="M0 0 C0.99 0.33 1.98 0.66 3 1 C3 2.98 3 4.96 3 7 C2.01 7 1.02 7 0 7 C0 4.69 0 2.38 0 0 Z " fill="#5991AC" transform="translate(89,135)"/>
<path d="M0 0 C1.98 0.99 1.98 0.99 4 2 C3.67 3.65 3.34 5.3 3 7 C2.01 6.67 1.02 6.34 0 6 C0 4.02 0 2.04 0 0 Z " fill="#04769B" transform="translate(80,68)"/>
<path d="M0 0 C0.33 0 0.66 0 1 0 C1 2.31 1 4.62 1 7 C-0.65 7 -2.3 7 -4 7 C-2.79618552 4.50638429 -1.54571278 2.31856917 0 0 Z " fill="#C84678" transform="translate(89,73)"/>
<path d="M0 0 C1.20628008 2.33214148 2.1654738 4.49642139 3 7 C2.01 7.66 1.02 8.32 0 9 C-0.12375 8.195625 -0.2475 7.39125 -0.375 6.5625 C-0.684375 5.2940625 -0.684375 5.2940625 -1 4 C-1.66 3.67 -2.32 3.34 -3 3 C-2.01 2.01 -1.02 1.02 0 0 Z " fill="#47698D" transform="translate(77,73)"/>
<path d="M0 0 C0.33 0.99 0.66 1.98 1 3 C2.32 3 3.64 3 5 3 C5 3.66 5 4.32 5 5 C4.34 5 3.68 5 3 5 C2.67 5.99 2.34 6.98 2 8 C-0.1519437 4.77208445 -0.20086443 3.71599191 0 0 Z " fill="#206990" transform="translate(88,143)"/>
<path d="M0 0 C0 3 0 3 -2.5 5.6875 C-3.325 6.450625 -4.15 7.21375 -5 8 C-5.33 7.34 -5.66 6.68 -6 6 C-4 4 -2 2 0 0 Z " fill="#914C77" transform="translate(83,82)"/>
<path d="M0 0 C1.5 1.25 1.5 1.25 3 3 C3 4.32 3 5.64 3 7 C2.01 7 1.02 7 0 7 C0 4.69 0 2.38 0 0 Z " fill="#2C3A5B" transform="translate(91,67)"/>
<path d="M0 0 C3 1 3 1 4.1875 3.0625 C4.455625 3.701875 4.72375 4.34125 5 5 C4.01 6.485 4.01 6.485 3 8 C2.01 5.36 1.02 2.72 0 0 Z " fill="#0D697C" transform="translate(89,56)"/>
</svg>
